<?xml version="1.0" encoding="UTF-8"?>
<svg width="675px" height="115px" viewBox="0 0 675 115" version="1.1" xmlns="http://www.w3.org/2000/svg" xmlns:xlink="http://www.w3.org/1999/xlink">
    <!-- Generator: Sketch 52.5 (67469) - http://www.bohemiancoding.com/sketch -->
    <title>Group 3 Copy 8</title>
    <desc>Created with Sketch.</desc>
    <g id="Page-3" stroke="none" stroke-width="1" fill="none" fill-rule="evenodd">
        <g id="concept-one-rough-test" transform="translate(-188.000000, -1972.000000)" fill="#373C8B">
            <g id="Group-3-Copy-8" transform="translate(177.000000, 1962.000000)">
                <g id="Group" transform="translate(11.000000, 10.000000)">
                    <path d="M12.4041667,68.8571429 L35.8083333,68.8571429 L35.8083333,113.428571 L12.4041667,113.428571 L12.4041667,68.8571429 Z M46.0833333,57.5714286 L70.0583333,57.5714286 L70.0583333,114.428571 L46.0833333,114.428571 L46.0833333,57.5714286 Z M80.9041667,34.4285714 L103.166667,34.4285714 L103.166667,114.428571 L80.9041667,114.428571 L80.9041667,34.4285714 Z M114.4517,0.6276 L114.4517,23.3724 C111.975549,23.3724 109.934847,23.3425012 106.122213,23.2647151 C97.2466611,23.0836345 93.9650619,23.1203982 89.8772453,23.5862935 C81.3274794,24.5607246 73.7527476,27.6316179 63.828754,34.8433278 C61.4734035,36.5549477 53.6644362,42.3400074 51.9765801,43.5586712 C47.8655059,46.5269439 44.7948142,48.5405485 41.6425713,50.2454157 C31.3861947,55.7925007 21.5581708,57.3724 0.651700249,57.3724 L0.651700249,34.6276 C18.1002372,34.6276 24.6572925,33.5735237 30.8223556,30.2391951 C32.9466168,29.0903043 35.2794268,27.5605653 38.6621803,25.1181537 C40.2076778,24.0022755 47.9788906,18.2451851 50.457868,16.4437263 C63.4726718,6.98594223 74.7350522,2.42002887 87.3016564,0.987792035 C92.7573633,0.365996029 96.6645162,0.32222425 106.58616,0.524647407 C110.251787,0.599434192 112.174205,0.6276 114.4517,0.6276 Z" id="Combined-Shape"></path>
                </g>
                <path d="M185.446,105 L185.446,37.638 L226.131,37.638 L226.131,47.732 L197.394,47.732 L197.394,66.787 L221.805,66.787 L221.805,76.881 L197.394,76.881 L197.394,105 L185.446,105 Z M234.268,86.151 L234.268,54.427 L246.113,54.427 L246.113,84.606 C246.113,92.949 248.482,96.039 253.941,96.039 C258.37,96.039 261.357,93.979 265.168,89.035 L265.168,54.427 L277.013,54.427 L277.013,105 L267.331,105 L266.404,97.584 L266.095,97.584 C261.666,102.837 256.722,106.236 249.821,106.236 C239.006,106.236 234.268,98.923 234.268,86.151 Z M287.004,99.232 L292.566,91.61 C297.098,95.112 301.424,97.275 306.574,97.275 C312.033,97.275 314.608,94.7 314.608,91.198 C314.608,86.975 309.149,85.121 303.793,83.061 C297.098,80.589 289.579,76.778 289.579,68.332 C289.579,59.474 296.686,53.191 308.016,53.191 C315.02,53.191 320.685,56.075 324.805,59.268 L319.346,66.478 C315.844,63.903 312.239,62.152 308.222,62.152 C303.175,62.152 300.806,64.521 300.806,67.714 C300.806,71.628 305.853,73.276 311.312,75.233 C318.213,77.808 325.835,81.104 325.835,90.58 C325.835,99.232 318.934,106.236 306.162,106.236 C299.261,106.236 291.948,103.249 287.004,99.232 Z M342.418,45.569 C338.195,45.569 335.105,42.788 335.105,38.874 C335.105,34.857 338.195,32.076 342.418,32.076 C346.641,32.076 349.731,34.857 349.731,38.874 C349.731,42.788 346.641,45.569 342.418,45.569 Z M336.444,105 L336.444,54.427 L348.289,54.427 L348.289,105 L336.444,105 Z M360.134,79.765 C360.134,62.873 371.567,53.191 384.133,53.191 C396.802,53.191 408.235,62.873 408.235,79.765 C408.235,96.554 396.802,106.236 384.133,106.236 C371.567,106.236 360.134,96.554 360.134,79.765 Z M372.288,79.765 C372.288,89.859 376.717,96.554 384.133,96.554 C391.549,96.554 396.081,89.859 396.081,79.765 C396.081,69.568 391.549,62.873 384.133,62.873 C376.717,62.873 372.288,69.568 372.288,79.765 Z M419.977,105 L419.977,54.427 L429.762,54.427 L430.586,61.225 L430.998,61.225 C435.53,56.796 440.68,53.191 447.581,53.191 C458.396,53.191 463.134,60.504 463.134,73.276 L463.134,105 L451.289,105 L451.289,74.821 C451.289,66.478 448.92,63.388 443.358,63.388 C438.929,63.388 436.045,65.551 431.822,69.671 L431.822,105 L419.977,105 Z M489.502,105 L489.502,47.732 L470.035,47.732 L470.035,37.638 L520.814,37.638 L520.814,47.732 L501.45,47.732 L501.45,105 L489.502,105 Z M536.882,45.569 C532.659,45.569 529.569,42.788 529.569,38.874 C529.569,34.857 532.659,32.076 536.882,32.076 C541.105,32.076 544.195,34.857 544.195,38.874 C544.195,42.788 541.105,45.569 536.882,45.569 Z M530.908,105 L530.908,54.427 L542.753,54.427 L542.753,105 L530.908,105 Z M557.894,105 L557.894,54.427 L567.679,54.427 L568.503,61.328 L568.915,61.328 C573.138,56.796 578.082,53.191 584.365,53.191 C591.781,53.191 596.004,56.59 598.373,62.255 C603.214,57.105 608.261,53.191 614.647,53.191 C625.359,53.191 630.303,60.504 630.303,73.276 L630.303,105 L618.355,105 L618.355,74.821 C618.355,66.478 615.883,63.388 610.63,63.388 C607.437,63.388 603.935,65.448 600.021,69.671 L600.021,105 L588.176,105 L588.176,74.821 C588.176,66.478 585.704,63.388 580.348,63.388 C577.258,63.388 573.653,65.448 569.739,69.671 L569.739,105 L557.894,105 Z M641.427,79.765 C641.427,63.285 652.86,53.191 664.705,53.191 C678.404,53.191 685.614,63.079 685.614,77.19 C685.614,79.456 685.408,81.516 685.099,82.752 L652.963,82.752 C653.993,91.919 659.761,97.069 667.898,97.069 C672.224,97.069 675.932,95.73 679.64,93.361 L683.657,100.777 C678.816,103.97 672.739,106.236 666.353,106.236 C652.345,106.236 641.427,96.451 641.427,79.765 Z M652.86,75.233 L675.314,75.233 C675.314,67.199 671.915,62.358 665.014,62.358 C659.04,62.358 653.89,66.787 652.86,75.233 Z" id="FusionTime"></path>
            </g>
        </g>
    </g>
</svg>